# xmcd
#
# Track frame offsets:
#	150
#	17445
#	35785
#	63057
#	85765
#	108735
#	131412
#	154255
#	178245
#	199095
#	217037
#	239090
#	261610
#	282430
#
# Disc length: 4091 seconds
#
# Revision: 1
# Processed by: cddbd v1.5.2PL0 Copyright (c) Steve Scherf et al.
# Submitted via: audiograbber 1.83.01
#
DISCID=d60ff90e
DTITLE=Dòng sông - 14 Ca Khúc Quê Hu'o'ng Viêt Nam
DYEAR=2001
DGENRE=Asia Country
TTITLE0=Rang Dông Trên Quê Hu'o'ng Viêt Nam-Giang Tù'
TTITLE1=Mu'a Vé Mién Trung-Ngoc Yén
TTITLE2=Thuong Vé Mién Dát Lanh-Quang Linh
TTITLE3=Táu Vé Qué Ngoai-Giang Tù'
TTITLE4=Ò Hai Dáu Noi Nhò-Bào Yén
TTITLE5=Câu Hò Bên Bo Hién Lu'o'ng-Quang Linh
TTITLE6=Tiéu Cán Môt Khúc Tinh Ca-Dinh Vân
TTITLE7=Thu'o'ng Vê Miên Trung-Quang Linh
TTITLE8=Cô Gái Xú' Dù'a-Thu Hiên
TTITLE9=Kiên Giang Mình Dep Lâm-Bích Phu'o'ng-Yén Thu
TTITLE10=Lò'i Ngu'ò'i Ra Di-Giang Tù'-Thùy Du'o'ng
TTITLE11=Em Gái Hà Tiên-Lê Tuân
TTITLE12=Vê Dây Nghe Em-Thanh Long
TTITLE13=Còn Thu'o'ng Rau DángMoc Sau Hè-Dính Vân
EXTD=
EXTT0=Pham Thé My^
EXTT1=Phan Hùynh Dieu
EXTT2=Minh ky^ - Da Cám
EXTT3=Pham Thé My^
EXTT4=Phan Hùynh Dieu
EXTT5=Hoàng Hiêp
EXTT6=Huy Phutong
EXTT7=Minh K`y
EXTT8=Giao Tiên
EXTT9=Lê Giang
EXTT10=Trân Hoàn
EXTT11=Y Vân
EXTT12=Trân Quang Lôc - A. Khuê
EXTT13=Bâc So'n
PLAYORDER=
